/* XPM */
static char *_648534689459[] = {
/* columns rows colors chars-per-pixel */
"50 50 25 1 ",
"  c #7B4511",
". c #7F4913",
"X c #834C14",
"o c #875017",
"O c #8B5317",
"+ c #8D5518",
"@ c #945717",
"# c #945817",
"$ c #995B17",
"% c #905719",
"& c #955C1C",
"* c #9A5E1B",
"= c #9D611E",
"- c #A1641E",
"; c #9D6320",
": c #A36621",
"> c #A66A24",
", c #AB6D26",
"< c #AC6F28",
"1 c #AE712A",
"2 c #B3742C",
"3 c #B8772D",
"4 c #B7782F",
"5 c #B9792F",
"6 c #BB7A30",
/* pixels */
"o&*%%&&XO**+#&#.%=&O&;+.&&*O*&+X&&&@&&oo&*%%&&Xo&&",
"*>>*=,>&=>:*;,>&=,>#:>;&=,:*:>=&:>;*>>*&:,**>:==:,",
">,4>,4,>,<5-22,:,22-22,>,22-41,:,2<>3,>,<3<,4<>>14",
"22422421225<441112416211144<6211243262112322621116",
"225325422261642122516321244<6211264162222633322226",
"<<3,22<>,<4,411:112,32,><13,611,<21,4<<><3,<3<>,<4",
"-<2,<2,;:<2>11<;,12>2<,=,<1>21:;,2<,2<>;<2,<2,::<2",
"12512411225<4411116,522<2441621116214111<622311116",
"22622442226246212451642124416222263262122623622126",
",14<24<,<14,24<<<24,411,<22,52<,132,61<,<5<<4<<<16",
";,2->2,;:<2=,1>;:<<*11>=><,=1,:=>2>:1,::,2>:2>;:,1",
"#=;$&;=+$==#&==O*=;#=;&+===@;=*+*;*%;=@%=;&&;;+&;;",
"X&&O+&# X&&o#&+ O&&X&&O +&#o&&o %&%O&%XX%%%%&& X&&",
"%=;$&;=+&;=#*;=+&:;$==&+&;=@;=&+*;&$:*%@;;&&;;+&;;",
";>2->2>;;,1=,1>;:,<*<<>;>1,=1,:;>2>;1,-;,2::1,;:,1",
"114<23<,116,42<,<23,42,,124,411,,33,61<,<3<241,1<5",
"223346211361442124616221246<642<233262212623621226",
"123<2611126<4411126,6221143<6211232162111622611116",
":<2,<2<;>,2>2<<;,<2>21,;<11>2<>;,1<,2<-:,2,,2<;><2",
",<3<12<>,<3,22<>,<3,21<><12<4<<><22<3<,>,3112<>,<4",
"225226222261352122616321246<6222264162123522632226",
"2251432<2261442<2251341124516211153162112523311126",
"><5><3,>,13:22<:,22:22,:>22:41,>,3<>5<>>,3,,3,>,12",
"*:,*;>:**:,$;>:&=>:$:,-$:>:$>:;&:>-&,>;&:,**,-&*>>",
"o*&%&&&XO&&+&&&.%&&O&&+X&&&O&&+X&&%%&&oo&&%%&&oo&&",
"X&&+%&&XO$&+&&&.%&&O&&%X&&&O*&OX&&%@&&oo&&%%&&oo=&",
";:,$;>:**,,$:>:&::>$>>;&->:$>>=&-,-$,>*&>,;=,:&;>>",
"><4,,4<>,<3-22,:,24:22>>>22:4<,>,31>5<>>,4>,4,>,<2",
"2232252<126<242<<25<622<233<521<1531611<2422611126",
"22623621226254222461622223316422254162222623621226",
",<3,22<><<3,221><13,31<><12,4<<><22,6<,,<3<14<,><4",
":,2,<2<;:,3>21,=>,2>2<,;,12:4<>;,2<,2<:-,2,,1<;><2",
"116<232<216<34<1126<4211144,6121144<6111161232<216",
"22624621226235212461532224426421264262212624621226",
"<<6<25<<<16,24<<<24,421<<24,61<,<32<61<116116<<<16",
":,2::<,;:<1=,1>;-<1=1<-=,<<*1,:;,1,*1<;;<1::2>;:,<",
"%=;$&;=%&;;@*;=O=;;#=;&o*=&$;;&+*;*$;=#%;;$&;;+#;;",
"X&&O+&% X&&O%&+ o%%o&&+ +$#o&&o %&%o&&X.&&O+&+.o&&",
"+=;$&;;%&;;@=;=O*;=@=;*+=;*$;;&+==*$;;%+;;$$;=+&;;",
":,1->1>;:,1;>1:;:<1*<<:;:1<*<<;;>2>=1,:;,1::1,;;,1",
"<13<241<<15<23<<<23,32<<<22,41<1<42<41<<<5<131,,16",
"22634621225233222431632124426412253264122623622226",
"213<2411116<4411125<5221224<6211154<611115226<1116",
":,2,<2,=><4:11,=,<3-2<,=,12>21:;,1<,2<>;<2,,2,:><2",
",<4,<2<><13,22<>,14,41<><22,6<<><22,4<>>,3112<><<5",
"2262464222513422246<6221244<6221263162222622621226",
"125223212261442<124<642<233162212331621<2522421125",
"><3>,4,>><3:<2,>,23-41>:,32-41>>,31>5<>>,5,<4<>><2",
"*:,*;,:&=>>*:>:&=>:*:,=&:>:$>>=&->:$,>*=>>;=,:=*>>",
"O*&+%&*X+&&%&&&X#&&+&&%X&&&+&&+X&&@%&&OX&&%%&&XO=&"
};
