/* XPM */
static char *_648536872147[] = {
/* columns rows colors chars-per-pixel */
"50 50 72 1 ",
"  c #5F2F1B",
". c #5E3017",
"X c #5E311A",
"o c #632F16",
"O c #602F19",
"+ c #633317",
"@ c #6E3217",
"# c #64351B",
"$ c #6A361B",
"% c #66391D",
"& c #6C3B1C",
"* c #743B16",
"= c #793D16",
"- c #723D1C",
"; c #5F3B26",
": c #643620",
"> c #6A3720",
", c #663B22",
"< c #6C3D22",
"1 c #653F29",
"2 c #723E22",
"3 c #793F23",
"4 c #6F401E",
"5 c #754117",
"6 c #74421C",
"7 c #79441C",
"8 c #76481F",
"9 c #7C4A1D",
"0 c #6D4124",
"q c #66422C",
"w c #6D442B",
"e c #6E482E",
"r c #734324",
"t c #794524",
"y c #764825",
"u c #7B4A25",
"i c #73452A",
"p c #794629",
"a c #75492C",
"s c #7C4B2B",
"d c #7D5026",
"f c #7E512B",
"g c #674631",
"h c #6D4631",
"j c #6E4934",
"k c #6F4D3B",
"l c #704731",
"z c #744B33",
"x c #7A4D33",
"c c #734E39",
"v c #7B4C38",
"b c #775135",
"n c #7D5134",
"m c #75523B",
"M c #7C533B",
"N c #7E5941",
"B c #80471C",
"V c #814C1E",
"C c #84501D",
"Z c #814D24",
"A c #814E2B",
"S c #835124",
"D c #82522C",
"F c #86592D",
"G c #804E31",
"H c #825232",
"J c #865932",
"K c #8A5E34",
"L c #83573C",
"P c #835B3F",
"I c #8F603E",
"U c #805841",
/* pixels */
"r,<<lclawepsbMxxhzeq0eMUMUmMmzmNMvNNkjmMbxzlhmhhzz",
"<0i1ihhlaaisHxsxzzewehxUIPmmmbbMzcccjcMnszlihlxgej",
"0iw<ie0iaawpJxxHeweeehmkLHMPMbmmlcccNNvnnxezzhhahz",
"a01210ewsfwpGa0xweawwhzjMMMMbzejkcjlMnzlalizamjeae",
"0w<w,,ieispsspweweie;hjxxxbbblejcjjcMvzGewii1iwwie",
"0<,<iiipaxGpii0pw0ar,ejnxxabmezjjchvxxaxxwxxeieaaq",
"e01<<asxsHHx0i0wiiaarlzannzzwhxjhhvHxxvxinvxxxiiiw",
"w<<:<tsaAHAapap0ieFfxbnzcHzxjzhhccHxezvaeHMxllppe0",
"i,,<psGsppsxAaAahghsxaxMnHzzjcxhjxxvhzazxnlzelziw0",
"pipuGpAGsptAJDsa00aawsznxzhleqgevxHzlwxvzHxwbiai0i",
"sDDspAspAZApusfariiaxzlMxclhwlwwlGxlwwllzxlhxawwgy",
"tpst2pAGGAAAfaur000riaicwji1qhlwivgh;wheaaweeeiw0y",
"tpptptsAGGAGDsyryr0qwaa2gwwqleixpzkzqgqaap0eipir00",
"AuZtAAuxpAsHApayiwwrfaqgh1qeizlslxvle0eaaaw<afsuyi",
"ttZtut3p2ppHSsiaa000sJxal<iaixzplGagq0ii0ieipDDDdr",
"73Z7ZZ2wpp2pssysi0iyaavpllasililiai,w00ii0rpuAsAsr",
"=-7tZZtr0pp3<r2iww0nlwqzpipaaHalhzppp00r0<afAusy00",
"3t7ZZr22><112<iipseql<wwfssffzsaisZtspapwwrtupp600",
"22@-3#>%<%#,lpappuyipxzpFnff1ipzapADDDpsapriiipi40",
"2#:#<:&><,,,,2tssapspxxAHFKJGvxAsnsuDDfaaa0w20a200",
">#&>$,2&<<1lpsGAuAapptpassJfJJssDspsfDda0irr<w1i00",
"<-$-%2t3>&3ptpAApptpppuDsssxAsapGapsptui1ruyt<i<0q",
"<%<<<:22<2<33iZAfuutpAAusppsspAAsADusutuipsAZpt2a0",
",$2-2<<<:<>233ApsspuaapssurrrpsspsAZAyssrpussAria0",
"##%&<<,$X,tZ2tAZAt222rpysssupuiypsuduZtutttupt2r<r",
"%X+%$%:#:X-22tZuAtr22ryyuSsudiirpyuSut8ryrpAytty<i",
",%+@%#,$#:$-77ZZSsV97prtyZSui0ry004iZStiruyypuysrw",
"$$$+.+%%#&2-2trpu<r8t7r-rryp0yr4,04,0ySSudZsZuuuau",
"#&+$+.o&<<$23-<&&%rr7rt-ip<ir6&,04%<0r9u8puuuturry",
"$&+$$o$--+$%--t<%--&<-rrtrr386r%%00rryyyuuZttsyr0r",
"4$%$$X+6-%&+$-32<&66%&-trp2r06r<04&ryuuipspytyr0rr",
"$+*&$X+46$+$$-@&2-6r-&&r2tirrp,,r%%<08dupHssprri60",
"+$6$&-Xr6$++$$&&-&22%&400rpria,%%%,<$rtusfDsspwryy",
"%%$%%,X-$X$+++$<>&r&,<6r00ryp0:<r0<0rryapyssssrr4e",
",r%%%$r-$XX. #$2,<r<,<<00,rpi,,<rtyrr0irpsusyytde4",
"-<<<-,-&%XX# O><:<2&&%$$r0r01<:,&ryr<%0i0puytr0y04",
"6-r8ut&&>  O.$23<2i6--$rrr2r&,,$%%0r<%r<06yyy<&<.4",
"6r6ty-6r>$#$$,21i<,286--2r-r-$$,%%%0r&rrry8yyr4444",
"6-yrrptr,>:>>#><<$%&t6r8rrr7&-&&$$X&-&<r4yd4ir0644",
"$-66-spr<2:<>3>>&%<0yu9rr7-6&2-2&6r&r-&8566%64%&X4",
"$6996sap<<<&$#-2-2<2p7rr88r-666-7798684*464444444%",
"$67786yii2-$--@$-$$&-rr9677997689V9886%&$%45&%XX4%",
"$*59966ii&&%@$@-@@-7-&t-tCVCV659VB9864$*$&.+4XXX44",
"$576566--6-&&*-2&<**6=6*&7CBV959996&6&%*&++4X44y0#",
"$*56596-67-$&-$6--$-B77785SVV769775$&&464X.4444%#&",
"$=557656-*$%$-&-&&%$&5$779VSZ777=**%%#&57667544&%5",
"7756699*6--+$6---<&*&=-669SCV7665&&&%%46884954$%-6",
"=7555996&*-66-@-77-u=3Z759VV9696%*5$#%648579585576",
"==55557756*465*6669t7BV75C79969746796ruSdCVV77-&66",
"=55=756766&779-*6*-VBBZ579599787$685669dVC8V98668-"
};
