/* XPM */
static char *_648548822692[] = {
/* columns rows colors chars-per-pixel */
"50 50 63 1 ",
"  c #00040C",
". c #130E0C",
"X c #15100E",
"o c #000113",
"O c #261910",
"+ c #2D1D12",
"@ c #342215",
"# c #392516",
"$ c #3F2816",
"% c #392618",
"& c #3D2A1C",
"* c #422A17",
"= c #452C18",
"- c #492F19",
"; c #4D311B",
": c #52351C",
"> c #57381F",
", c #5A3A1F",
"< c #5D3C21",
"1 c #613F22",
"2 c #654124",
"3 c #6C4626",
"4 c #6F4827",
"5 c #674429",
"6 c #69462B",
"7 c #6A482C",
"8 c #704827",
"9 c #744B29",
"0 c #794E2B",
"q c #7E512C",
"w c #83552E",
"e c #88572F",
"r c #88582F",
"t c #875730",
"y c #885730",
"u c #8C5A31",
"i c #925E33",
"p c #966135",
"a c #9A6436",
"s c #956339",
"d c #9E6638",
"f c #9D693D",
"g c #A06739",
"h c #A46A3A",
"j c #AA6E3C",
"k c #AE703E",
"l c #B1723E",
"z c #976740",
"x c #996941",
"c c #A56E43",
"v c #A67146",
"b c #AE7343",
"n c #A77348",
"m c #AF7648",
"M c #B57541",
"N c #B87742",
"B c #B67845",
"V c #BA7A45",
"C c #B1794B",
"Z c #BD7E49",
"A c #BF814E",
"S c #C0824E",
"D c #C28552",
/* pixels */
". $;:,2311333333999923321O @>113388219883333382,,,",
". *,,23881900008wwww00q93+ #128909w93ww0008wq09211",
"X *,238q030ewww0euuuqqw08+ $239wwwew8eeeww0wew0322",
". =<299wq9wyeewwiiiiwwwq0+ *390weiie0iirwwwuerw833",
". -,390ww8wireeeiiiiuyyw0+ =99weiepewupiyywuyuw933",
". -2390ww0wirereiiaauuuw0+ *80wriupuwipeuyeiuiw983",
". -230qrw0eiruriiigauuuww@ =90weiiaiwipuuuyiuiw893",
". =230wre0eiieiiaagauiiy0@ *00wiipgiwpaiuiuiiie993",
". ;180wirqriieppaagdupprt@o*9wwippgpepauuiiiipw998",
". ;23qwrrwrprrppgdhaipait@ :qwuigghaeaguipiappw008",
". ;33rrirwrdriarhjhapiapt@ <wwiajjhaiagpipuhaiw009",
". ;38riiiwrdipdpjhhdpaapy#o1rwiakjhaiahppaigapw099",
". ;33rriiwrgppddhhjdpaaie# 1ywpakhjgighpadadaprq09",
". ;33riiiwidppghjjjhdddpw#o1uyidljjhihhdaggdaarq09",
". :38riirwppppghjjjjgghau#o1iuadlljgphhgdgdgdarw00",
"X ;49riiirpdddhgllkjghhai% 2puaglklhpjjgdgajhaiwq0",
"X :38eipieihgdhjlllljhhdi%o1piahlllkdjjhhhgjhgiwq0",
". ;88eipiighhhjjllNljjjfp%o1iiahMMlkgklkjjhjhdiwq0",
"X :89epgaighhkjjjlNljjbfs%o2aigjMNNkjllllhhgghprw0",
"X :89rahaiahjljjjlNljbbhs%o1iigjVVZkjklllhjghhpywq",
"X :88upgaigjlllljlVllMbhs&o2ppdjVVZMjBNNljjdhgiyew",
"X :80ephhphklljljNVlMMnci&o2aahjNZSMjVVNNjjdjhpuwq",
"X :89ephgphklljljlVlMMnhi&o2aaakVVDBkNVVNjjdhgprwq",
"X :39eajhpgkllhkjlNNMMmhi&o5saajVZDVjMVVNhhdghaurq",
"X :89rpjhihllljljMVMMMmcs&o6sihbVZDBbVVVNjjghhauww",
"X :90rpjhpjllllVjVVNMmbcs&o2fdjbVZDZkZZVNkkhjhsuwq",
"X >80rahgijllVllMNZNMCCcx&o6ddgbZZDBlZVVVjjhjjaurw",
"X :80idhgphjlVllMNZVVBCcz&o6adhMAADMlMNVVljjhjaurw",
"X :90rdhaahjlNjMlNZVMCCvx&o6fajMZADBMVNVMjkhjjauww",
"X :80uagaahkjlMMVZZVMMmnx&o6fdjMZZZMlVVNMljMkjayww",
"X :90iadgigjjjlMZZZNMMmnx&o7fdjbZZZVjMNlllkMlhdyww",
"X :80updaigjjjllVZZNMbmvx&o7gdjbZZZMjMNljjjMlharwq",
"X ,90paaarghhhllVVVllMmvs&o7fabMAZBlhMlljkjljjpewq",
"X :99paadrdjhjllVNAlllmhs&o6aajkAZVMhMlljlkkjhpwww",
"X :99rpddudjhhklVNVlkkbfs&o7sahjZVVMhlNjjkjkjhpwq0",
"X :90isdaidjggkjVVVlkkjvz& 7fpjMSVVbhlNjhjhljhpww0",
"X :90padpipjggjgVVVkjjkvf&o7fphkZVVlhkMhhjdljgiwqq",
"X ;90rsaprdjddhjMMNkhkkhs&o1iihjVVNkhklhghhkjgiwwq",
"X :30wuaprpjadjjklMMhkkhs&o;ypajllNjajlhghjhghpww0",
"X :39wuaprphdahhkkMMhhhgi&o:updjklNjajlhdhggggpqw0",
"X ;39wyapeahaahhjjllhhhds%o:tiahkjlhpjkgdgdgggiwq0",
"X :39wyipeihaadgjjllhhhai%o;wuahjjlhpjkgdddgdgiw00",
". ;20wtirwigdadajjllggdpu%o:typhhhkgphkgddpgadiw09",
"X ;38qtiiwiaaaaphhjjddaiu%o;wyiahhkguhhhdipgaduq09",
"X ;290wir0igapapgjjhaaapu@ ;0tuadghaighgppidaarq09",
". ;280wyewraippihjjgpsapr%o;0tuapahpeggapprgaar009",
"X ;280wyewripipidggdipaur@ -0tyaapgiudppppipair008",
". ;239wew0wiipriadddiasrw@o;0wyiiaaieapppirppir008",
". -239wwq0wpiirrpggdiiprw@ -0wwuipiurppairrpiir098",
". -120qqw0rrrwrwidgpriiw0@ -00tuiiiuripreewuiiw898"
};
