/* XPM */
static char *_648534703283[] = {
/* columns rows colors chars-per-pixel */
"50 50 132 2 ",
"   c #695732",
".  c #7E6A4D",
"X  c #7F6E58",
"o  c #7E7253",
"O  c #826E4F",
"+  c #816E54",
"@  c #867253",
"#  c #8C7352",
"$  c #8D7955",
"%  c #89765B",
"&  c #8B785C",
"*  c #937D5D",
"=  c #8E7C66",
"-  c #8C7D6A",
";  c #947E64",
":  c #937F6B",
">  c #8D8263",
",  c #948165",
"<  c #94846C",
"1  c #9C866C",
"2  c #948572",
"3  c #988774",
"4  c #978E73",
"5  c #9B8A75",
"6  c #958979",
"7  c #9C8D7B",
"8  c #9B9077",
"9  c #9E917E",
"0  c #A08560",
"q  c #A28864",
"w  c #A18A6F",
"e  c #AC916E",
"r  c #A38E73",
"t  c #A28E7A",
"y  c #A39173",
"u  c #A4937D",
"i  c #AA957C",
"p  c #A69B7C",
"a  c #A99A7D",
"s  c #B29B7E",
"d  c #998E82",
"f  c #9E9281",
"g  c #A49583",
"h  c #A99784",
"j  c #A59985",
"k  c #AC9B83",
"l  c #A89789",
"z  c #A69B8A",
"x  c #AC9C8B",
"c  c #B19C83",
"v  c #B29E8A",
"b  c #AD9E90",
"n  c #B09F91",
"m  c #AFA084",
"M  c #AEA28D",
"N  c #B9A386",
"B  c #B2A38D",
"V  c #BAA48C",
"C  c #BEA88E",
"Z  c #AEA392",
"A  c #AFA896",
"S  c #B3A493",
"D  c #B9A692",
"F  c #B5A994",
"G  c #BBAA95",
"H  c #B4A698",
"J  c #B9A798",
"K  c #B6AA99",
"L  c #BCAC9C",
"P  c #BBB19D",
"I  c #BDAEA1",
"U  c #B7B2A1",
"Y  c #BEB2A3",
"T  c #BEB3A8",
"R  c #BEB8A8",
"E  c #C3AF94",
"W  c #C1AE9A",
"Q  c #C3B29D",
"!  c #C5B89B",
"~  c #CCBA9F",
"^  c #C3B4A4",
"/  c #C9B6A3",
"(  c #C5B8A7",
")  c #CBBAA5",
"_  c #C3B6A9",
"`  c #C8B7A8",
"'  c #C5BAAB",
"]  c #CBBCAC",
"[  c #D1BFAD",
"{  c #C6BDB1",
"}  c #CBBEB1",
"|  c #D0BEB3",
" . c #CFC0AF",
".. c #D3C2AE",
"X. c #DBC8AE",
"o. c #CDC2B3",
"O. c #CCC3B9",
"+. c #CFC8BB",
"@. c #D3C3B4",
"#. c #D8C7B4",
"$. c #D5C9B6",
"%. c #DACAB5",
"&. c #D4C6B9",
"*. c #D8C7B9",
"=. c #D6C9BC",
"-. c #DBCCBC",
";. c #DDD1BE",
":. c #E0CFBF",
">. c #E0D0B7",
",. c #E1D2BE",
"<. c #EAD9BF",
"1. c #D6CBC1",
"2. c #DCCEC2",
"3. c #DED1C4",
"4. c #DDD4C9",
"5. c #DFD8CD",
"6. c #E2D3C5",
"7. c #E9D7C5",
"8. c #E6D8C7",
"9. c #E9D9C3",
"0. c #E3D6CA",
"q. c #E8D7CA",
"w. c #E5D9CC",
"e. c #EADBCD",
"r. c #E6DBD1",
"t. c #EADED2",
"y. c #EDE1D5",
"u. c #EDE3D9",
"i. c #F1E2D5",
"p. c #F1E5DB",
"a. c #F2E8DE",
"s. c #F4EAE1",
/* pixels */
"z 2.W v *.6._ J / / W v >.Q 5 &.6.) 2.0.S g 6.6.&.q.^ X j 6.^ r [ t.0._ q.r.6.t.0.c i =.e...P 3.$.F ",
"l e.` g *.0.W c c E n q.<.E : &.t.-.o.q.@.: =.=.-.r.@.> 2 -.*.6.-.t.w.I -.2.@.-.0.#.j ' e.%.) t.$.K ",
"L t.[ g -.2./ # / 2.v 6.[ V ; | y.-.1.w.( r o.Z e.r.-.h < ../ ,.3.q.2.J -.6.] L 0.,., ' i. .F u.=. .",
"_ i.*.S ` | / q [ | ) %.Q E E 2.e.3.0.e.P S { 2 *.6.q.x , -.q.6.q.r.O.l ..%.[ ] 4.9.2  .a. .m r.4.+.",
"_ t._ l 2./ E l | k / ` %...M -.y.;.w.@.M ' ' - | -.q.V * 6.t.6.6.e.} 3 ] -.G ` 6.9.u o.u.#.4 3.+. .",
"` i._ n 2.I n n q./ ` [ <.%.l 4.e.-.0.$.R =.2.K L 6.6.D O @.i.q.:.2.W t ] 3.) ^ y.9.g o.u.8.F =.$.A ",
"` i.] &.1.n n n t.&._ o.6.#.z r.w.( =.8.=.1.r.3.] 8.6.v + ^ 0.q.q.&.^ u ) >.W J 4.9.x ' y.-.$.8...M ",
"| r.2.e.2.7 3 ^ a.4.Y K 6.-.d 1.$.] =.t.=.O.a.0.6.6.-.D % L 2.q.q.-.] c ) -._ c G <.5 R i.] 3.u.$.M ",
"| t.2.q.&.l = _ s.4.} ] 6.-.7 ] d =.o.6.=.O.y.3.e.6.o. .u @.i.t.q.6.W F -.$.] i G 9.y +.r.( 4.y.F p ",
"1.r.2.t.` ` H | s.' I _ ^ I 2 } { =.} S { 3.5.4.y.=.8. .8 ] t.t.0.6.] L :.:.W i #.,.S 4.8.$.t.8. .p ",
"3.r.3.u.1.1.} 1.s.&.H g t l 7 2.t.4.1.] 3.O.1.o.w.3.0.=.l L r.p.0.3...P e./ 1 w ..] u 8.4...e.9.5.! ",
"&.t.0.0.t.2.| &.t.| ` L I H : 0.0.0.&.t.5.R &.0.8.y.e.*.b | u.t.6.8.` K q.N * r s N B 6.-.( 3.3.e. .",
"| q.q.q.w.0.] 1.t.] 6.| 2.| 3 2.4.4.0.u.4.T +.w.0.8.r.-.x } 6.t.e.0.` ( 8.) w a N G V #.#.;.w.9.8.R ",
"1.q.[ r.4.{ | -.t.] 2.n W 1.S 2.3.o.t.s.&.g &.w.4.6.t.=.t } 0.t.3.3.) K $. .i r Q *.G ..%.;.9.,.%.P ",
"&.q.W r.0.n n { t.1.^ 5 n | _ r.=.1.t.t.] l Y 4.y.e.y.-.3 ^ 1.2.2.=.Q x @.[ s C ) ,.B  .9. .,.%.$.F ",
"} 0.| t.4.l l _ 0.4.1.^ *.-.H w.r.4.2.2.' g F 4.u.w.u.w.t } =.^ 3.-.Q S $...N E X.;.p ! 9. .9.>...p ",
"J 2.t.p.2.n n ^ 6.*.2.0.| b B 6.4.1.} i._ 9 } &.r.w.a.y.u ] -.g ' q.Q ^ -.-.~ N Q *.y ! t.;.8.;. .p ",
"n t.t.p.4._ _ I q.:.2.] x K S 3.r.3.2.t.Y 7 1.o.u.u.u.3.S K =.o.I 3.( ^ %.<.X.s E ;.y ( e.0.6.6...P ",
"W t.1.q.4.O._ ^ 7.@.6.D L 2.S 2.4.2.6.6.K l 4.1.r.8.u.w.F m P o.@.-.$.Q %.9.#.e E 6.p ^ y.8.4.4.$.! ",
"^ q.1.q.r.r.] _ q.%.-.^ | w._ @.@.3.0.0.L f 5.y.q.3.t.u.L  .z $ ] q.3.^ %.6.) q ) 9.p ( e.e.6.3.;.R ",
"_ u.r.t.t.4.^ ] 7.>.*.| @.r._ ] } w.0.w._ b 4.r.r.*.r.4.^ @.*.G @.t.3.' 8.#.Q 0 V ,.k ( e.3.0.w.;.~ ",
"O.a.u.0.t.1.I ] e.X.| :.&.5.{ -.1.q.=.w.I U r.0.w.o.w.2.G o.e.4.0.u.3._ u.9.Q e N 9.j ' r._ 4.w.5.R ",
"| p.4.| t.1.l ` q.%.3.[ 1.t._ q.q.6.{ w.K J u.0.q.o.w.2.v ^ =.3.3.y.&.] u.e.) s @.e.x +.y.] q.w.r.o.",
"I u.4.2.t.w.h / #.%.-./ -.r.{ e.6.6.] q.S z t.e.4.o.y.q.S B ' 2.2.e.*.( w.u.! ` [ 7.S o.i.$.6.w.y.+.",
"^ t.0.t.w.0.b ^ [ :./ ] 6.&.&.q.6.=.=.e.Z < r.q.0.@.s.5.K ` &.-.3.u.3.^ =.u.-.@.X.<.A R r. .;.y.5.! ",
"] t.q.r.w.0.W D W 6.:.:.| ] { q.6.=.1.u.x 8 t.] 8.=.u.5.x D @.-.2.t.2.' 0.y.e.6.9.;.p R r.$.5.u.5.+.",
"b r.0.6.r.t.L D W 6.6.-.*.&._ 6.9.$.@.e.7 u t.2.6.=.w.t.S i ` =.w.r.-.^ 0.4.3.e.;...p +.y.;.5.8.;.P ",
"n s.t.4.0.w.t Q :.] ^ 6.2.&.1.r.e.] ( u.9 < 6.q.e.3.w.2.{ ( ( 2.&.w.*.M 2.4.-.9. .;.U ;.r.;.<.e.+.> ",
"| t.t.q.r.r.l ` 6.n S q.] J 1.e.6.2.=.a.Z < -.J @.r.u.} _ ] L *.| w.2.M 4.4.X.3.w.0.R $.5.8.5.5.+.p ",
"_ w.r.q.4.| n | q.$.-.q.} @ } 2.-.0.r.a.S % -.g 7 @.u.' ^ ` ^ | 2.r.3.^ y.4.8.y.y.5.A =.8.U R 8.5.! ",
"b i.4.0.1.| H _ i.0.*.2.| t Y 3.6.;.6.p.n @ *.&.( F w.=.L W ` ] =.u.=.' 4.6.p.u.u.5.M 3.;.o A y.;.M ",
"x t.0.0.2.t.I ' r.*.| 3.-.@._ 6.,.*.6.r.x & *.*.S n e.-.L L [ 2.t.r...L 0.4.u.u.u.w.M 3.>.U ;.r.;.> ",
"_ p.2.-.e.t.I ^ r.| 2.| 0.2.^ 2.6.-.3.e.Z . -.*.I b -.2.^ | | 6.1.2.` J r.r.r.r.p.5.7 ;.;.4.w.8.;.4 ",
"_ i.*.@.y.0.n _ p.3.e.2.t.2.J 2.,.e.6.e.H + -.6.2.S 2.t.` &.&.q.` 0.*.^ t.t.t.0.t.r.x 0.;.' 4.4.5.p ",
"/ i.-.[ r.2.I _ p.2.t.2.r.6._ *.,.6.q.w.H % 1.6.2.} i.3.I &.&.1.| r._ L w.t.u.r.4.0.' 0.;.P j 5.y.A ",
"Q q.6.3.q.2.n { t.4.3.3.3.| | 0.-.3.8.e.Y > 6.:.q.q.t.1.t ` | 2.*.t.] F 0.1.0.3.2.| I 4.8.;.A 5.u.P ",
"L #.6.q.t.@.6 } 0.| q.0.q.| _ r.6.9.9.e.] 6 6.6.2.q.t.} < ^ 6.r.-.w.^ S t.q.w.3.2.@.K 3.t.0.3.4.y.F ",
"a -.3.q.7.| 3 } r.&.t.3.q.1.^ q.6.:.6.r.{ < -.q.2.6.q.^ % Q q.q.&.t._ c q.t.t.t.6.' f 4.w.;.8.y.e.A ",
"c i.*.3.e.S + | t.3.0.1.p.2.^ t.6.6.q.t._ 3 -.6.q.:.6.| : Q 6.2.1.t.2.k 2.t.t.3.6.J 6 1.;.=.;.e.r.A ",
"c 6.*.| i.L = { 0.2.&.-.t.2._ 6.-.q.-.t.o.7 6.e.:.6.t.1.3 n 6.1.-.t.0.x 6.p.t.2.-.D z &.9.=.;.3.u.M ",
"W 2.3.| 3.^ d _ 2.| 2.2.y.6._ 2.4.w.%.r.o.z 7.,.] e.e.*.S W 2.2.&.w.2.n r.u.4.1.2.^ M +.w.-.#.-.y.P ",
"} 7.@.&.q.H 2 ^ 0.*.2.*.2.2.^ *.e. .P -.S 3 ,.-.) q.i.@.^ *.2.-.&.0.| I t.r.2.1.[ ^ f $.6.$.;.0.4.A ",
"| e.^ S t.^ : S t.q.2.0.2.1._ q.' / ^ @.L u :.,.:.6.t.#.L -.0.{ &.&.3.n i.4.2.r.] D u -.3...%.6.8.M ",
"*.i.v v 0.| 3 L t.q.*.q.t.&.] ^ < o.' 3.P g ,.6.q.0.t...L 3.0.q.| | r.I t.0.r.t.*.W 7 3.;.*.-.3.e.R ",
"` @.^ L 1.2.t I t.q.-.q.i.&.| S * L *.;.@.M :.6.6.t.a...^ r.0.K J q.q.I t.u.t.r.3.o.f 4.-.@.@.-.y.{ ",
"^ ] -._ | t.n L 6.q.6.*.i.1.@.` * r *.0.] J 7.e.2.@.t.2.Y 0.0.S D 6.0.T t.p.p.t.2.$.z 0.-.@.$.0.5.R ",
"] ` @.1.&.q.J v :.-.6.e.e.*.&.} K ^ P 3.H K 6.6.6.&.t.4.S &.$.q.v *.q.' r.r.p.t.&.2.F 0.6.@.*.;.$.{ ",
"L W } t._ &.^ V e.:.3.r.8.@.o._ ^ 3.' @.g l 6.q.6.5.u.4.S &.@.*.W 2.0.T 4.r.u.t.2.2.Z 4.0.] %.;.! P ",
"_ W J 2.n ^ ] W 7.6.*.[ | :.^ x 1 B ^ 3.x   ] 6.-.q.r.O.S t.| [ 2.q.2.` q.e.r.t.^ [ u =.8.=.4.4...K ",
"J ] h ] :.3.{ W :.W E | :.:.z Q W v -.*.x > 2.@.| *.( B x t.L W 7.e.2._ 0.r.r.t.3./ g =.w.' ! 6.5.R "
};
