/* XPM */
static char *_649153695914[] = {
/* columns rows colors chars-per-pixel */
"16 16 10 1 ",
"  c #D5D5D5",
". c gainsboro",
"X c #00E100",
"o c #00E600",
"O c #00E900",
"+ c #00EA00",
"@ c gray92",
"# c #00F300",
"$ c #00F600",
"% c None",
/* pixels */
"%%%%%%%%%%%%%%%%",
"%%%%%%%%%%%%%%%%",
"%%#Oo@.XX.@oO#%%",
"%%O%%%%  %%%%O%%",
"%%o%%%%%%%%%%o%%",
"%%@%%%%%%%%%%@%%",
"%%.%%%%%%%%%%.%%",
"%%X %%%%%%%% X%%",
"%%X %%%%%%%% X%%",
"%%.%%%%%%%%%%.%%",
"%%@%%%%%%%%%%@%%",
"%%o%%%%%%%%%%o%%",
"%%O%%%%  %%%%@%%",
"%%#Oo@.XX.OOO#%%",
"%%%%%%%%%%%%%%%%",
"%%%%%%%%%%%%%%%%"
};
